#N canvas 0 23 733 539 10;
#X msg 235 60 open 1;
#X obj 234 142 comport 9600;
#X obj 236 235 gate 3;
#X obj 283 196 counter 1 3;
#X floatatom 284 272 5 0 0 0 - - -;
#X obj 283 171 bang;
#X obj 297 462 print;
#X obj 232 463 sendOSC;
#X msg 321 172 set 2;
#X msg 32 89 disconnect;
#X msg 235 89 close;
#X msg 236 351 send /ch2 0 1;
#X msg 330 351 send /ch2 1 1;
#X msg 425 350 send /ch2 2 1;
#X msg 519 350 send /ch2 3 1;
#X msg 608 350 send /ch2 4 1;
#X msg 251 380 send /ch2 5 1;
#X msg 345 380 send /ch2 6 1;
#X msg 440 379 send /ch2 7 1;
#X msg 534 379 send /ch2 8 1;
#X msg 623 379 send /ch2 9 1;
#X msg 33 60 connect 192.168.100.101 57138;
#X msg 31 31 connect 127.0.0.1 57138;
#X obj 234 293 route 48 49 50 51 52 53 54 55 56 57;
#X connect 0 0 1 0;
#X connect 1 0 2 1;
#X connect 1 0 5 0;
#X connect 2 0 4 0;
#X connect 2 0 23 0;
#X connect 3 0 2 0;
#X connect 5 0 3 0;
#X connect 8 0 3 0;
#X connect 9 0 7 0;
#X connect 10 0 1 0;
#X connect 11 0 7 0;
#X connect 11 0 6 0;
#X connect 12 0 7 0;
#X connect 12 0 6 0;
#X connect 13 0 7 0;
#X connect 13 0 6 0;
#X connect 14 0 7 0;
#X connect 14 0 6 0;
#X connect 15 0 7 0;
#X connect 15 0 6 0;
#X connect 16 0 7 0;
#X connect 16 0 6 0;
#X connect 17 0 7 0;
#X connect 17 0 6 0;
#X connect 18 0 7 0;
#X connect 18 0 6 0;
#X connect 19 0 7 0;
#X connect 19 0 6 0;
#X connect 20 0 7 0;
#X connect 20 0 6 0;
#X connect 21 0 7 0;
#X connect 22 0 7 0;
#X connect 23 0 11 0;
#X connect 23 1 12 0;
#X connect 23 2 13 0;
#X connect 23 3 14 0;
#X connect 23 4 15 0;
#X connect 23 5 16 0;
#X connect 23 6 17 0;
#X connect 23 7 18 0;
#X connect 23 8 19 0;
#X connect 23 9 20 0;
